<?xml version="1.0" encoding="UTF-8"?>
<svg xmlns="http://www.w3.org/2000/svg" viewBox="0 0 512 512" fill="#FFFFFF" aria-label="LINE">
<g transform="translate(0,512) scale(0.1,-0.1)" stroke="none">
<path d="M445 5108 c-27 -5 -86 -27 -131 -48 -152 -73 -274 -232 -303 -394 -15 -83 -15 -4129 0 -4212 35 -194 186 -361 389 -430 53 -18 129 -19 2160 -19 2031 0 2107 1 2160 19 137 46 235 121 309 235 65 101 82 166 88 324 l6 137 -42 0 c-41 0 -41 0 -42 38 l-1 37 -10 -37 c-9 -33 -14 -38 -39 -38 -29 0 -29 -1 -29 -56 0 -50 -4 -62 -35 -100 -47 -57 -143 -119 -222 -144 -63 -19 -91 -20 -1072 -20 -856 1 -1000 3 -968 14 91 33 392 214 592 357 468 334 805 690 985 1040 76 147 183 433 217 576 28 122 26 490 -5 630 -161 738 -831 1286 -1681 1374 -152 16 -423 6 -576 -20 -506 -86 -944 -340 -1232 -713 -70 -92 -165 -253 -203 -347 -18 -45 -31 -83 -29 -85 2 -1 36 -14 76 -28 l71 -25 37 84 c312 720 1196 1121 2067 937 437 -92 815 -327 1065 -664 78 -105 184 -316 217 -432 54 -190 71 -441 41 -623 -80 -493 -528 -1034 -1251 -1508 -87 -57 -215 -135 -283 -173 -104 -57 -134 -69 -182 -72 -51 -4 -60 -2 -83 21 l-26 26 0 189 c0 175 -1 191 -20 215 -12 15 -34 28 -53 31 -18 3 -83 12 -145 21 -313 45 -627 176 -871 365 -47 37 -131 114 -186 171 -163 170 -265 336 -334 544 -38 115 -71 287 -71 374 l0 41 -82 0 -81 0 6 -98 c8 -125 38 -277 78 -384 17 -46 48 -132 70 -193 87 -240 204 -430 374 -600 160 -162 309 -266 526 -369 174 -82 361 -139 547 -167 l82 -12 0 -74 c0 -79 14 -126 55 -179 14 -18 25 -45 25 -61 0 -79 49 -153 113 -172 20 -6 -352 -10 -999 -10 -1007 -1 -1033 -1 -1097 19 -79 25 -175 87 -222 145 l-35 42 2 2019 3 2019 22 54 c46 112 124 191 230 232 45 17 86 23 181 27 l122 4 0 79 0 79 -112 -1 c-62 -1 -135 -5 -163 -11z"/>
<path d="M880 5040 l0 -80 80 0 80 0 0 80 0 80 -80 0 -80 0 0 -80z"/>
<path d="M1200 5040 l0 -80 1723 -2 1722 -3 45 -21 c94 -44 156 -121 204 -252 63 -176 59 -62 63 -2019 l4 -1783 80 0 80 0 -4 1798 c-3 1786 -3 1798 -24 1892 -71 319 -209 492 -431 539 -38 8 -543 11 -1757 11 l-1705 0 0 -80z"/>
<path d="M1280 2665 l0 -456 25 -24 24 -25 256 0 255 0 0 80 0 80 -200 0 -200 0 0 400 0 400 -80 0 -80 0 0 -455z"/>
<path d="M2000 2640 l0 -480 80 0 80 0 0 480 0 480 -80 0 -80 0 0 -480z"/>
<path d="M2425 3095 l-25 -24 0 -456 0 -455 80 0 80 0 2 292 3 292 169 -283 c93 -155 177 -286 187 -292 31 -16 69 -10 94 16 l25 24 0 456 0 455 -80 0 -80 0 -2 -292 -3 -292 -169 283 c-93 155 -177 286 -187 292 -31 16 -69 10 -94 -16z"/>
<path d="M3225 3095 l-25 -24 0 -431 0 -431 25 -24 24 -25 256 0 255 0 0 80 0 80 -200 0 -200 0 0 120 0 120 200 0 200 0 0 80 0 80 -200 0 -200 0 0 120 0 120 200 0 200 0 0 80 0 80 -255 0 -256 0 -24 -25z"/>
<path d="M677 3053 c-3 -4 -10 -41 -17 -82 -14 -84 -10 -91 51 -91 20 0 50 -3 66 -6 l29 -6 13 72 c7 40 9 75 5 79 -5 5 -31 14 -59 21 -27 6 -57 14 -67 16 -9 3 -18 1 -21 -3z"/>
</g>
</svg>
